<?xml version="1.0" standalone="no"?><!-- Generator: Gravit.io --><svg xmlns="http://www.w3.org/2000/svg" xmlns:xlink="http://www.w3.org/1999/xlink" style="isolation:isolate" viewBox="0 0 50 50" width="50" height="50"><defs><clipPath id="_clipPath_1kWOPk1YnF5bN8kqXHTXsDqNElY9RXG2"><rect width="50" height="50"/></clipPath></defs><g clip-path="url(#_clipPath_1kWOPk1YnF5bN8kqXHTXsDqNElY9RXG2)"><path d=" M 28.413 25 L 10.526 43.263 C 9.728 44.079 9.735 45.385 10.542 46.192 L 13.74 49.39 C 14.132 49.782 14.665 50.002 15.219 50 C 15.774 49.998 16.305 49.776 16.694 49.382 L 39.457 26.473 C 39.849 26.083 40.069 25.553 40.068 25 C 40.069 24.447 39.849 23.917 39.457 23.527 L 16.694 0.618 C 16.305 0.224 15.774 0.002 15.219 0 C 14.665 -0.002 14.132 0.218 13.74 0.61 L 10.542 3.808 C 9.735 4.615 9.728 5.921 10.526 6.737 L 28.413 25 Z " fill="rgb(150,195,204)" fill-opacity="0.6"/></g></svg>