<?xml version="1.0" standalone="no"?><!-- Generator: Gravit.io --><svg xmlns="http://www.w3.org/2000/svg" xmlns:xlink="http://www.w3.org/1999/xlink" style="isolation:isolate" viewBox="0 0 50 50" width="50" height="50"><defs><clipPath id="_clipPath_h6siApcW5haSYj471cOiLoTkQ5GuPVMC"><rect width="50" height="50"/></clipPath></defs><g clip-path="url(#_clipPath_h6siApcW5haSYj471cOiLoTkQ5GuPVMC)"><path d=" M 13.462 0 C 12.304 0 11.538 0.765 11.538 1.923 L 11.538 7.692 C 11.538 8.85 12.304 9.615 13.462 9.615 C 14.619 9.615 15.385 8.85 15.385 7.692 L 15.385 1.923 C 15.385 0.765 14.619 0 13.462 0 Z  M 36.538 0 C 35.381 0 34.615 0.765 34.615 1.923 L 34.615 7.692 C 34.615 8.85 35.381 9.615 36.538 9.615 C 37.696 9.615 38.462 8.85 38.462 7.692 L 38.462 1.923 C 38.462 0.765 37.696 0 36.538 0 Z  M 5.769 3.846 C 2.5 3.846 0 6.346 0 9.615 L 0 44.231 C 0 47.5 2.5 50 5.769 50 L 44.231 50 C 47.5 50 50 47.5 50 44.231 L 50 9.615 C 50 6.346 47.5 3.846 44.231 3.846 L 40.385 3.846 L 40.385 7.692 C 40.385 9.812 38.658 11.538 36.538 11.538 C 34.419 11.538 32.692 9.812 32.692 7.692 L 32.692 3.846 L 17.308 3.846 L 17.308 7.692 C 17.308 9.812 15.581 11.538 13.462 11.538 C 11.342 11.538 9.615 9.812 9.615 7.692 L 9.615 3.846 L 5.769 3.846 Z  M 3.846 17.308 L 46.154 17.308 L 46.154 44.231 C 46.154 45.388 45.388 46.154 44.231 46.154 L 5.769 46.154 C 4.612 46.154 3.846 45.388 3.846 44.231 L 3.846 17.308 Z " fill="rgb(102,205,225)"/></g></svg>