<?xml version="1.0" standalone="no"?><!-- Generator: Gravit.io --><svg xmlns="http://www.w3.org/2000/svg" xmlns:xlink="http://www.w3.org/1999/xlink" style="isolation:isolate" viewBox="0 0 10 10" width="10" height="10"><defs><clipPath id="_clipPath_UoGzsx5ZjerH0C3s6XSQWGPFkuCxBtEo"><rect width="10" height="10"/></clipPath></defs><g clip-path="url(#_clipPath_UoGzsx5ZjerH0C3s6XSQWGPFkuCxBtEo)"><path d=" M 7.961 3.217 C 7.961 1.58 6.636 0.255 5 0.255 C 3.364 0.255 2.039 1.58 2.039 3.217 C 2.039 4.853 5 9.745 5 9.745 C 5 9.745 7.961 4.85 7.961 3.217 L 7.961 3.217 Z  M 3.147 3.322 C 3.147 2.299 3.976 1.469 5 1.469 C 6.024 1.469 6.853 2.299 6.853 3.322 C 6.853 4.347 6.022 5.176 5 5.176 C 3.978 5.176 3.147 4.347 3.147 3.322 L 3.147 3.322 Z " fill="rgb(0,165,184)"/></g></svg>