<?xml version="1.0" standalone="no"?><!-- Generator: Gravit.io --><svg xmlns="http://www.w3.org/2000/svg" xmlns:xlink="http://www.w3.org/1999/xlink" style="isolation:isolate" viewBox="0 0 50 50" width="50" height="50"><defs><clipPath id="_clipPath_ktfHpwWWsq4PFwxnVxqn8bV2rWMC5imV"><rect width="50" height="50"/></clipPath></defs><g clip-path="url(#_clipPath_ktfHpwWWsq4PFwxnVxqn8bV2rWMC5imV)"><path d=" M 25 0 C 11.215 0 0 11.215 0 25 C 0 38.785 11.215 50 25 50 C 38.785 50 50 38.785 50 25 C 50 11.215 38.785 0 25 0 Z  M 25 3.846 C 36.704 3.846 46.154 13.296 46.154 25 C 46.159 30.272 44.186 35.354 40.625 39.242 C 39.183 36.59 34.938 34.413 30.408 33.473 C 30.408 33.473 28.246 32.888 29.208 30.769 C 30.552 29.042 31.369 27.14 31.369 26.562 C 31.369 26.562 33.279 25.023 33.473 22.715 C 33.669 20.598 33.054 20.373 33.054 20.373 C 33.819 17.871 34.029 8.458 28.065 9.615 C 27.104 7.692 20.794 6.167 17.91 11.358 C 16.563 13.86 15.962 17.504 17.308 20.192 C 17.308 20.388 16.904 19.99 16.706 21.335 C 16.706 22.679 17.331 24.594 17.91 25.362 C 18.104 25.744 18.487 25.946 18.871 26.142 C 18.871 26.142 19.246 28.469 20.973 30.588 C 21.358 32.317 19.59 33.292 19.59 33.292 C 14.904 34.233 10.644 36.412 9.194 39.062 C 5.74 35.193 3.836 30.186 3.846 25 C 3.846 13.296 13.296 3.846 25 3.846 Z " fill="rgb(102,205,225)"/></g></svg>