<?xml version="1.0" standalone="no"?><!-- Generator: Gravit.io --><svg xmlns="http://www.w3.org/2000/svg" xmlns:xlink="http://www.w3.org/1999/xlink" style="isolation:isolate" viewBox="0 0 50 50" width="50" height="50"><defs><clipPath id="_clipPath_02iJG4Q0WqADHYhCKuzfWJTivKCAKaZE"><rect width="50" height="50"/></clipPath></defs><g clip-path="url(#_clipPath_02iJG4Q0WqADHYhCKuzfWJTivKCAKaZE)"><path d=" M 21.587 25 L 39.474 6.737 C 40.272 5.921 40.265 4.615 39.458 3.808 L 36.26 0.61 C 35.868 0.218 35.335 -0.002 34.781 0 C 34.226 0.002 33.695 0.224 33.306 0.618 L 10.543 23.527 C 10.151 23.917 9.931 24.447 9.932 25 C 9.931 25.553 10.151 26.083 10.543 26.473 L 33.306 49.382 C 33.695 49.776 34.226 49.998 34.781 50 C 35.335 50.002 35.868 49.782 36.26 49.39 L 39.458 46.192 C 40.265 45.385 40.272 44.079 39.474 43.263 L 21.587 25 Z " fill="rgb(151,195,204)" fill-opacity="0.6"/></g></svg>