<?xml version="1.0" standalone="no"?><!-- Generator: Gravit.io --><svg xmlns="http://www.w3.org/2000/svg" xmlns:xlink="http://www.w3.org/1999/xlink" style="isolation:isolate" viewBox="0 0 100 100" width="100" height="100"><defs><clipPath id="_clipPath_RMuFZ8XtRgTHeBEJPSnyTAnGNKqi0eSh"><rect width="100" height="100"/></clipPath></defs><g clip-path="url(#_clipPath_RMuFZ8XtRgTHeBEJPSnyTAnGNKqi0eSh)"><path d=" M 0 0 L 100 0 L 100 100 L 0 100 L 0 0 Z " fill="rgb(255,255,255)"/><g><path d=" M 74.138 30.172 L 74.138 58.914 C 74.137 59.829 73.774 60.707 73.128 61.355 L 65.666 68.817 C 65.017 69.464 64.14 69.827 63.224 69.827 L 27.586 69.827 C 26.635 69.825 25.864 69.055 25.862 68.103 L 25.862 30.172 L 29.31 32.758 L 32.759 30.172 L 36.207 32.758 L 39.655 30.172 L 43.103 32.758 L 46.552 30.172 L 50 32.758 L 53.448 30.172 L 56.776 32.664 L 56.897 32.758 L 60.345 30.172 L 61.681 31.183 L 63.405 32.499 L 63.793 32.758 L 67.241 30.172 L 70.509 32.631 L 70.69 32.758 L 74.138 30.172 Z " fill="rgb(250,239,222)"/><path d=" M 63.793 68.965 L 63.793 61.207 C 63.793 60.254 64.565 59.483 65.517 59.483 L 73.276 59.483 L 73.811 59.896 L 64.938 68.965 L 63.793 68.965 Z " fill="rgb(187,222,249)"/><path d=" M 74.138 32.077 L 74.138 50.095 L 54.405 69.827 L 36.388 69.827 L 74.138 32.077 Z  M 70.509 32.631 L 33.31 69.827 L 26.112 69.827 L 63.44 32.5 L 63.793 32.758 L 67.241 30.172 L 70.509 32.631 Z  M 61.681 31.183 L 25.862 66.991 L 25.862 63.577 L 56.776 32.664 L 56.897 32.758 L 60.345 30.172 L 61.681 31.183 Z " fill="rgb(255,247,240)"/><path d=" M 31.034 45.689 L 48.276 45.689 L 48.276 59.483 L 31.034 59.483 L 31.034 45.689 Z " fill="rgb(123,190,235)"/><path d=" M 31.034 37.069 L 68.966 37.069 L 68.966 40.517 L 31.034 40.517 L 31.034 37.069 Z " fill="rgb(187,222,249)"/><path d=" M 31.034 37.069 L 50 37.069 L 50 40.517 L 31.034 40.517 L 31.034 37.069 Z " fill="rgb(133,203,248)"/><path d=" M 74.526 29.405 C 74.245 29.274 73.916 29.304 73.664 29.483 L 70.69 31.681 L 67.76 29.483 C 67.452 29.253 67.03 29.253 66.722 29.483 L 63.793 31.681 L 60.864 29.483 C 60.556 29.253 60.134 29.253 59.826 29.483 L 56.897 31.681 L 53.967 29.483 C 53.659 29.253 53.237 29.253 52.929 29.483 L 50 31.681 L 47.071 29.483 C 46.763 29.253 46.341 29.253 46.033 29.483 L 43.103 31.681 L 40.174 29.483 C 39.866 29.253 39.444 29.253 39.136 29.483 L 36.207 31.681 L 33.278 29.483 C 32.97 29.253 32.548 29.253 32.24 29.483 L 29.31 31.681 L 26.381 29.483 C 26.12 29.288 25.771 29.256 25.478 29.401 C 25.185 29.546 25 29.845 25 30.172 L 25 68.103 C 25 69.532 26.158 70.689 27.586 70.689 L 63.224 70.689 C 64.368 70.693 65.466 70.24 66.275 69.431 L 73.741 61.964 C 74.55 61.155 75.003 60.057 75 58.913 L 75 30.172 C 75 29.849 74.815 29.552 74.526 29.405 Z  M 72.517 60.741 L 65.052 68.208 C 64.931 68.328 64.796 68.44 64.654 68.534 L 64.654 61.207 C 64.654 60.733 65.042 60.345 65.516 60.345 L 72.844 60.345 C 72.748 60.487 72.639 60.62 72.517 60.741 L 72.517 60.741 Z  M 73.276 58.62 L 65.517 58.62 C 64.089 58.62 62.931 59.778 62.931 61.207 L 62.931 68.965 L 27.586 68.965 C 27.112 68.965 26.724 68.577 26.724 68.103 L 26.724 31.896 L 28.791 33.448 C 29.098 33.677 29.522 33.677 29.829 33.448 L 32.759 31.25 L 35.688 33.448 C 35.995 33.677 36.419 33.677 36.726 33.448 L 39.655 31.25 L 42.584 33.448 C 42.891 33.677 43.316 33.677 43.622 33.448 L 46.552 31.25 L 49.481 33.448 C 49.788 33.677 50.212 33.677 50.519 33.448 L 53.448 31.25 L 56.378 33.448 C 56.684 33.677 57.109 33.677 57.416 33.448 L 60.345 31.25 L 63.274 33.448 C 63.581 33.677 64.005 33.677 64.312 33.448 L 67.241 31.25 L 70.171 33.448 C 70.478 33.677 70.902 33.677 71.209 33.448 L 73.276 31.896 L 73.276 58.62 Z " fill="rgb(108,120,159)"/><path d=" M 48.276 44.827 L 31.034 44.827 C 30.56 44.827 30.172 45.215 30.172 45.689 L 30.172 59.483 C 30.172 59.957 30.56 60.345 31.034 60.345 L 48.276 60.345 C 48.75 60.345 49.138 59.957 49.138 59.483 L 49.138 45.689 C 49.138 45.215 48.75 44.827 48.276 44.827 Z  M 47.414 58.62 L 31.897 58.62 L 31.897 46.552 L 47.414 46.552 L 47.414 58.62 Z  M 68.966 36.207 L 31.034 36.207 C 30.56 36.207 30.172 36.595 30.172 37.069 L 30.172 40.517 C 30.172 40.991 30.56 41.379 31.034 41.379 L 68.966 41.379 C 69.44 41.379 69.828 40.991 69.828 40.517 L 69.828 37.069 C 69.828 36.595 69.44 36.207 68.966 36.207 Z  M 68.103 39.655 L 31.897 39.655 L 31.897 37.931 L 68.103 37.931 L 68.103 39.655 Z  M 53.448 46.552 L 65.517 46.552 C 65.991 46.552 66.379 46.164 66.379 45.689 C 66.379 45.215 65.991 44.827 65.517 44.827 L 53.448 44.827 C 52.974 44.827 52.586 45.215 52.586 45.689 C 52.586 46.164 52.974 46.552 53.448 46.552 Z  M 67.241 53.448 C 67.716 53.448 68.103 53.06 68.103 52.586 C 68.103 52.112 67.716 51.724 67.241 51.724 L 65.517 51.724 C 65.043 51.724 64.655 52.112 64.655 52.586 C 64.655 53.06 65.043 53.448 65.517 53.448 L 67.241 53.448 Z  M 53.448 53.448 L 62.069 53.448 C 62.543 53.448 62.931 53.06 62.931 52.586 C 62.931 52.112 62.543 51.724 62.069 51.724 L 53.448 51.724 C 52.974 51.724 52.586 52.112 52.586 52.586 C 52.586 53.06 52.974 53.448 53.448 53.448 Z  M 60.345 58.62 L 53.448 58.62 C 52.974 58.62 52.586 59.008 52.586 59.483 C 52.586 59.957 52.974 60.345 53.448 60.345 L 60.345 60.345 C 60.819 60.345 61.207 59.957 61.207 59.483 C 61.207 59.008 60.819 58.62 60.345 58.62 Z  M 68.966 48.276 L 53.448 48.276 C 52.974 48.276 52.586 48.664 52.586 49.138 C 52.586 49.612 52.974 50 53.448 50 L 68.966 50 C 69.44 50 69.828 49.612 69.828 49.138 C 69.828 48.664 69.44 48.276 68.966 48.276 Z  M 68.966 55.172 L 53.448 55.172 C 52.974 55.172 52.586 55.56 52.586 56.034 C 52.586 56.508 52.974 56.896 53.448 56.896 L 68.966 56.896 C 69.44 56.896 69.828 56.508 69.828 56.034 C 69.828 55.56 69.44 55.172 68.966 55.172 Z  M 31.034 62.069 C 30.56 62.069 30.172 62.457 30.172 62.931 L 30.172 64.655 C 30.172 65.129 30.56 65.517 31.034 65.517 C 31.509 65.517 31.897 65.129 31.897 64.655 L 31.897 62.931 C 31.897 62.457 31.509 62.069 31.034 62.069 Z  M 35.345 62.069 C 34.871 62.069 34.483 62.457 34.483 62.931 L 34.483 64.655 C 34.483 65.129 34.871 65.517 35.345 65.517 C 35.819 65.517 36.207 65.129 36.207 64.655 L 36.207 62.931 C 36.207 62.457 35.819 62.069 35.345 62.069 Z  M 39.655 62.069 C 39.181 62.069 38.793 62.457 38.793 62.931 L 38.793 64.655 C 38.793 65.129 39.181 65.517 39.655 65.517 C 40.129 65.517 40.517 65.129 40.517 64.655 L 40.517 62.931 C 40.517 62.457 40.129 62.069 39.655 62.069 Z  M 43.966 62.069 C 43.491 62.069 43.103 62.457 43.103 62.931 L 43.103 64.655 C 43.103 65.129 43.491 65.517 43.966 65.517 C 44.44 65.517 44.828 65.129 44.828 64.655 L 44.828 62.931 C 44.828 62.457 44.44 62.069 43.966 62.069 Z  M 48.276 62.069 C 47.802 62.069 47.414 62.457 47.414 62.931 L 47.414 64.655 C 47.414 65.129 47.802 65.517 48.276 65.517 C 48.75 65.517 49.138 65.129 49.138 64.655 L 49.138 62.931 C 49.138 62.457 48.75 62.069 48.276 62.069 Z " fill="rgb(108,120,159)"/></g></g></svg>