<svg xmlns="http://www.w3.org/2000/svg" xmlns:xlink="http://www.w3.org/1999/xlink" style="isolation:isolate" viewBox="0 0 50 50" width="50" height="50"><g clip-path="url(#_clipPath_caW4r33hPyf9t0ZMLjuWjgFXn70SV031)"><path d=" M 25.007 10.105 C 7.149 10.105 0.338 24.305 0.338 24.305 L 0 25 L 0.338 25.695 C 0.338 25.695 7.149 39.895 25.007 39.895 C 42.864 39.895 49.676 25.695 49.676 25.695 L 50 25 L 49.676 24.305 C 49.676 24.305 42.864 10.105 25.007 10.105 Z  M 25.007 13.415 C 31.421 13.415 36.591 18.589 36.591 25 C 36.591 31.415 31.418 36.585 25.007 36.585 C 21.933 36.59 18.983 35.371 16.809 33.198 C 14.635 31.024 13.417 28.074 13.422 25 C 13.422 18.585 18.595 13.415 25.007 13.415 Z  M 13.227 15.987 C 11.218 18.563 10.123 21.734 10.112 25 C 10.112 28.399 11.303 31.504 13.227 34.013 C 6.878 30.859 4.293 25.837 3.879 25 C 4.293 24.159 6.878 19.141 13.227 15.987 Z  M 36.787 15.987 C 43.135 19.141 45.72 24.163 46.134 25 C 45.72 25.841 43.135 30.859 36.787 34.013 C 38.795 31.437 39.891 28.266 39.901 25 C 39.901 21.601 38.71 18.496 36.787 15.987 Z  M 25.007 20.035 C 22.265 20.035 20.042 22.258 20.042 25 C 20.042 27.742 22.265 29.965 25.007 29.965 C 27.749 29.965 29.972 27.742 29.972 25 C 29.972 22.258 27.749 20.035 25.007 20.035 Z " fill="rgb(102,205,225)"/></g></svg>