<?xml version="1.0" standalone="no"?><!-- Generator: Gravit.io --><svg xmlns="http://www.w3.org/2000/svg" xmlns:xlink="http://www.w3.org/1999/xlink" style="isolation:isolate" viewBox="0 0 10 10" width="10" height="10"><defs><clipPath id="_clipPath_xxDuZYJbRaFjx7RHllfEv1T0DwP519Th"><rect width="10" height="10"/></clipPath></defs><g clip-path="url(#_clipPath_xxDuZYJbRaFjx7RHllfEv1T0DwP519Th)"><g filter="url(#p5I7LMwBNNE1p6td9jPh5827HO7WZ1HK)"><path d=" M 5 1.042 C 5.363 1.042 5.714 1.089 6.051 1.183 C 6.389 1.277 6.705 1.409 6.999 1.581 C 7.291 1.752 7.561 1.96 7.801 2.199 C 8.041 2.44 8.248 2.708 8.419 3.001 C 8.592 3.299 8.726 3.617 8.817 3.949 C 8.911 4.286 8.958 4.637 8.958 5 C 8.958 5.363 8.911 5.714 8.817 6.051 C 8.726 6.383 8.592 6.701 8.419 6.999 C 8.248 7.291 8.04 7.561 7.801 7.801 C 7.56 8.041 7.292 8.248 6.999 8.419 C 6.701 8.592 6.383 8.726 6.051 8.817 C 5.709 8.912 5.355 8.959 5 8.958 C 4.637 8.958 4.286 8.911 3.949 8.817 C 3.617 8.726 3.299 8.592 3.001 8.419 C 2.709 8.248 2.439 8.04 2.199 7.801 C 1.96 7.561 1.752 7.291 1.581 6.999 C 1.409 6.702 1.275 6.384 1.183 6.053 C 1.088 5.71 1.04 5.356 1.042 5 C 1.042 4.637 1.089 4.286 1.183 3.949 C 1.274 3.617 1.408 3.299 1.581 3.001 C 1.752 2.709 1.96 2.439 2.199 2.199 C 2.439 1.96 2.709 1.752 3.002 1.581 C 3.298 1.408 3.616 1.275 3.947 1.183 C 4.29 1.088 4.644 1.04 5 1.042 Z  M 1.537 5 C 1.537 5.343 1.584 5.673 1.679 5.99 L 3.083 5.99 C 3.042 5.661 3.021 5.331 3.021 5 C 3.021 4.669 3.041 4.339 3.083 4.011 L 1.679 4.011 C 1.584 4.332 1.536 4.665 1.537 5 Z  M 3.868 1.726 C 3.651 1.801 3.444 1.897 3.245 2.016 C 3.047 2.134 2.863 2.269 2.693 2.422 C 2.522 2.574 2.366 2.743 2.229 2.926 C 2.09 3.11 1.971 3.307 1.873 3.516 L 3.16 3.516 C 3.192 3.359 3.228 3.203 3.269 3.048 C 3.31 2.89 3.36 2.735 3.417 2.582 C 3.476 2.429 3.542 2.28 3.616 2.136 C 3.691 1.991 3.775 1.855 3.867 1.726 L 3.868 1.726 Z  M 1.873 6.484 C 1.971 6.693 2.089 6.89 2.228 7.074 C 2.505 7.441 2.85 7.75 3.245 7.984 C 3.444 8.103 3.651 8.2 3.867 8.274 C 3.774 8.144 3.69 8.007 3.616 7.864 C 3.541 7.72 3.474 7.571 3.417 7.418 C 3.359 7.265 3.31 7.11 3.268 6.952 C 3.227 6.798 3.191 6.642 3.16 6.485 L 1.873 6.485 L 1.873 6.484 L 1.873 6.484 Z  M 6.419 5.99 C 6.439 5.825 6.456 5.66 6.467 5.497 C 6.491 5.166 6.491 4.834 6.467 4.503 C 6.456 4.339 6.439 4.176 6.419 4.011 L 3.581 4.011 C 3.561 4.174 3.545 4.339 3.533 4.503 C 3.509 4.834 3.509 5.166 3.533 5.497 C 3.545 5.661 3.561 5.824 3.581 5.99 L 6.419 5.99 Z  M 5 1.536 C 4.874 1.536 4.752 1.572 4.646 1.641 C 4.537 1.711 4.436 1.802 4.343 1.915 C 4.25 2.029 4.167 2.157 4.094 2.3 C 3.953 2.575 3.84 2.863 3.755 3.16 C 3.722 3.278 3.692 3.396 3.666 3.516 L 6.334 3.516 C 6.277 3.25 6.2 2.989 6.102 2.735 C 6.045 2.587 5.979 2.441 5.907 2.3 C 5.837 2.163 5.754 2.034 5.658 1.915 C 5.572 1.808 5.469 1.715 5.354 1.641 C 5.249 1.573 5.126 1.536 5 1.536 L 5 1.536 Z  M 5 8.464 C 5.126 8.464 5.244 8.429 5.354 8.359 C 5.463 8.289 5.564 8.198 5.657 8.085 C 5.75 7.971 5.833 7.843 5.907 7.7 C 6.047 7.425 6.16 7.137 6.245 6.84 C 6.279 6.722 6.308 6.604 6.334 6.484 L 3.667 6.484 C 3.723 6.75 3.801 7.011 3.898 7.265 C 3.955 7.412 4.02 7.557 4.094 7.7 C 4.167 7.843 4.25 7.971 4.343 8.085 C 4.436 8.198 4.537 8.29 4.646 8.359 C 4.756 8.429 4.874 8.464 5 8.464 L 5 8.464 Z  M 8.128 3.516 C 8.03 3.307 7.911 3.11 7.772 2.926 C 7.496 2.559 7.15 2.25 6.755 2.016 C 6.558 1.898 6.35 1.801 6.133 1.726 C 6.226 1.855 6.309 1.991 6.384 2.136 C 6.459 2.28 6.525 2.429 6.583 2.582 C 6.641 2.735 6.691 2.89 6.732 3.048 C 6.773 3.205 6.809 3.361 6.84 3.515 L 8.128 3.515 L 8.128 3.516 Z  M 6.133 8.274 C 6.349 8.199 6.558 8.102 6.755 7.984 C 6.952 7.867 7.137 7.731 7.308 7.578 C 7.478 7.426 7.634 7.257 7.772 7.074 C 7.91 6.89 8.03 6.693 8.127 6.484 L 6.84 6.484 C 6.808 6.641 6.772 6.797 6.731 6.952 C 6.69 7.11 6.641 7.265 6.583 7.418 C 6.525 7.57 6.459 7.719 6.384 7.864 C 6.309 8.009 6.226 8.145 6.133 8.274 L 6.133 8.274 Z  M 8.464 5 C 8.464 4.657 8.416 4.327 8.321 4.011 L 6.918 4.011 C 6.958 4.339 6.979 4.669 6.979 5 C 6.979 5.331 6.959 5.661 6.917 5.99 L 8.321 5.99 C 8.416 5.673 8.464 5.343 8.464 5 Z " fill-rule="evenodd" fill="rgb(255,255,255)"/><rect x="0" y="0" width="10" height="10" transform="matrix(1,0,0,1,0,0)" fill="none"/></g><defs><filter id="p5I7LMwBNNE1p6td9jPh5827HO7WZ1HK" x="-200%" y="-200%" width="400%" height="400%" filterUnits="objectBoundingBox" color-interpolation-filters="sRGB"><feGaussianBlur xmlns="http://www.w3.org/2000/svg" stdDeviation="2.146804531419514"/></filter></defs></g></svg>